<svg width="79" height="80" viewBox="0 0 79 80" fill="none" xmlns="http://www.w3.org/2000/svg">
<path d="M35.0223 4.81748C35.7729 -0.347967 43.2271 -0.347967 43.9777 4.81748C44.5615 8.83586 49.7333 10.1106 52.1177 6.82383C55.1828 2.59883 61.7832 6.06301 60.0473 10.9856C58.6968 14.815 62.6838 18.3472 66.3225 16.545C71 14.2283 75.2345 20.3631 71.4097 23.9151C68.4343 26.6783 70.3232 31.6587 74.3826 31.7539C79.6009 31.8764 80.4994 39.2763 75.4621 40.644C71.5434 41.7079 70.9013 46.9957 74.4515 48.9665C79.0152 51.5 76.3718 58.4698 71.2759 57.3399C67.3117 56.4609 64.2858 60.8446 66.5135 64.2395C69.377 68.6036 63.7974 73.5467 59.8103 70.178C56.7086 67.5574 51.9921 70.0327 52.3869 74.0741C52.8944 79.269 45.6567 81.053 43.6918 76.2172C42.1633 72.4553 36.8367 72.4553 35.3082 76.2172C33.3433 81.053 26.1056 79.269 26.6131 74.0741C27.0078 70.0327 22.2914 67.5574 19.1897 70.178C15.2026 73.5467 9.62299 68.6036 12.4865 64.2395C14.7142 60.8446 11.6884 56.4609 7.72406 57.3399C2.62815 58.4698 -0.0151691 51.5 4.54847 48.9665C8.09868 46.9957 7.45664 41.7079 3.53793 40.644C-1.49939 39.2763 -0.60088 31.8764 4.61737 31.7539C8.67683 31.6587 10.5657 26.6783 7.59027 23.9151C3.76553 20.3631 8.00004 14.2283 12.6775 16.545C16.3162 18.3472 20.3032 14.815 18.9527 10.9856C17.2168 6.06301 23.8172 2.59884 26.8823 6.82383C29.2667 10.1106 34.4385 8.83586 35.0223 4.81748Z" fill="#7E221F"/>
</svg>
